<svg xmlns="http://www.w3.org/2000/svg" viewBox="0 0 210 158" width="210px" version="1.1" height="158px">
	<g transform="matrix(1.0,0.0,0.0,1.0,0.5,0.5)">
		<rect x="2.0" width="10.0" y="54.0" fill="#00ff00" stroke="#000000" height="10.0">
		</rect>
		<rect x="12.0" width="10.0" y="54.0" fill="#ffffff" stroke="#000000" height="10.0">
		</rect>
		<rect x="22.0" width="10.0" y="54.0" fill="#ff0000" stroke="#000000" height="10.0">
		</rect>
		<rect x="32.0" width="10.0" y="54.0" fill="#0000ff" stroke="#000000" height="10.0">
		</rect>
		<rect x="42.0" width="10.0" y="54.0" fill="#ffff00" stroke="#000000" height="10.0">
		</rect>
		<rect x="2.0" width="10.0" y="64.0" fill="#ff8000" stroke="#000000" height="10.0">
		</rect>
		<rect x="12.0" width="10.0" y="64.0" fill="#00ff00" stroke="#000000" height="10.0">
		</rect>
		<rect x="22.0" width="10.0" y="64.0" fill="#ff8000" stroke="#000000" height="10.0">
		</rect>
		<rect x="32.0" width="10.0" y="64.0" fill="#ffffff" stroke="#000000" height="10.0">
		</rect>
		<rect x="42.0" width="10.0" y="64.0" fill="#00ff00" stroke="#000000" height="10.0">
		</rect>
		<rect x="2.0" width="10.0" y="74.0" fill="#ff8000" stroke="#000000" height="10.0">
		</rect>
		<rect x="12.0" width="10.0" y="74.0" fill="#0000ff" stroke="#000000" height="10.0">
		</rect>
		<rect x="22.0" width="10.0" y="74.0" fill="#ff8000" stroke="#000000" height="10.0">
		</rect>
		<rect x="32.0" width="10.0" y="74.0" fill="#0000ff" stroke="#000000" height="10.0">
		</rect>
		<rect x="42.0" width="10.0" y="74.0" fill="#ff8000" stroke="#000000" height="10.0">
		</rect>
		<rect x="2.0" width="10.0" y="84.0" fill="#ffff00" stroke="#000000" height="10.0">
		</rect>
		<rect x="12.0" width="10.0" y="84.0" fill="#ff0000" stroke="#000000" height="10.0">
		</rect>
		<rect x="22.0" width="10.0" y="84.0" fill="#00ff00" stroke="#000000" height="10.0">
		</rect>
		<rect x="32.0" width="10.0" y="84.0" fill="#ffff00" stroke="#000000" height="10.0">
		</rect>
		<rect x="42.0" width="10.0" y="84.0" fill="#ffffff" stroke="#000000" height="10.0">
		</rect>
		<rect x="2.0" width="10.0" y="94.0" fill="#ff8000" stroke="#000000" height="10.0">
		</rect>
		<rect x="12.0" width="10.0" y="94.0" fill="#00ff00" stroke="#000000" height="10.0">
		</rect>
		<rect x="22.0" width="10.0" y="94.0" fill="#ffffff" stroke="#000000" height="10.0">
		</rect>
		<rect x="32.0" width="10.0" y="94.0" fill="#00ff00" stroke="#000000" height="10.0">
		</rect>
		<rect x="42.0" width="10.0" y="94.0" fill="#00ff00" stroke="#000000" height="10.0">
		</rect>
		<rect x="54.0" width="10.0" y="106.0" fill="#ffff00" stroke="#000000" height="10.0">
		</rect>
		<rect x="64.0" width="10.0" y="106.0" fill="#ff8000" stroke="#000000" height="10.0">
		</rect>
		<rect x="74.0" width="10.0" y="106.0" fill="#0000ff" stroke="#000000" height="10.0">
		</rect>
		<rect x="84.0" width="10.0" y="106.0" fill="#00ff00" stroke="#000000" height="10.0">
		</rect>
		<rect x="94.0" width="10.0" y="106.0" fill="#ffff00" stroke="#000000" height="10.0">
		</rect>
		<rect x="54.0" width="10.0" y="116.0" fill="#ff8000" stroke="#000000" height="10.0">
		</rect>
		<rect x="64.0" width="10.0" y="116.0" fill="#ff8000" stroke="#000000" height="10.0">
		</rect>
		<rect x="74.0" width="10.0" y="116.0" fill="#ff0000" stroke="#000000" height="10.0">
		</rect>
		<rect x="84.0" width="10.0" y="116.0" fill="#ffffff" stroke="#000000" height="10.0">
		</rect>
		<rect x="94.0" width="10.0" y="116.0" fill="#ffffff" stroke="#000000" height="10.0">
		</rect>
		<rect x="54.0" width="10.0" y="126.0" fill="#00ff00" stroke="#000000" height="10.0">
		</rect>
		<rect x="64.0" width="10.0" y="126.0" fill="#ffff00" stroke="#000000" height="10.0">
		</rect>
		<rect x="74.0" width="10.0" y="126.0" fill="#ffff00" stroke="#000000" height="10.0">
		</rect>
		<rect x="84.0" width="10.0" y="126.0" fill="#00ff00" stroke="#000000" height="10.0">
		</rect>
		<rect x="94.0" width="10.0" y="126.0" fill="#ff8000" stroke="#000000" height="10.0">
		</rect>
		<rect x="54.0" width="10.0" y="136.0" fill="#ff0000" stroke="#000000" height="10.0">
		</rect>
		<rect x="64.0" width="10.0" y="136.0" fill="#ffff00" stroke="#000000" height="10.0">
		</rect>
		<rect x="74.0" width="10.0" y="136.0" fill="#ffff00" stroke="#000000" height="10.0">
		</rect>
		<rect x="84.0" width="10.0" y="136.0" fill="#ffff00" stroke="#000000" height="10.0">
		</rect>
		<rect x="94.0" width="10.0" y="136.0" fill="#ff0000" stroke="#000000" height="10.0">
		</rect>
		<rect x="54.0" width="10.0" y="146.0" fill="#ffffff" stroke="#000000" height="10.0">
		</rect>
		<rect x="64.0" width="10.0" y="146.0" fill="#00ff00" stroke="#000000" height="10.0">
		</rect>
		<rect x="74.0" width="10.0" y="146.0" fill="#ff8000" stroke="#000000" height="10.0">
		</rect>
		<rect x="84.0" width="10.0" y="146.0" fill="#ffff00" stroke="#000000" height="10.0">
		</rect>
		<rect x="94.0" width="10.0" y="146.0" fill="#0000ff" stroke="#000000" height="10.0">
		</rect>
		<rect x="158.0" width="10.0" y="54.0" fill="#ffffff" stroke="#000000" height="10.0">
		</rect>
		<rect x="168.0" width="10.0" y="54.0" fill="#ffff00" stroke="#000000" height="10.0">
		</rect>
		<rect x="178.0" width="10.0" y="54.0" fill="#ffff00" stroke="#000000" height="10.0">
		</rect>
		<rect x="188.0" width="10.0" y="54.0" fill="#ffff00" stroke="#000000" height="10.0">
		</rect>
		<rect x="198.0" width="10.0" y="54.0" fill="#ffff00" stroke="#000000" height="10.0">
		</rect>
		<rect x="158.0" width="10.0" y="64.0" fill="#ffff00" stroke="#000000" height="10.0">
		</rect>
		<rect x="168.0" width="10.0" y="64.0" fill="#ff0000" stroke="#000000" height="10.0">
		</rect>
		<rect x="178.0" width="10.0" y="64.0" fill="#ffff00" stroke="#000000" height="10.0">
		</rect>
		<rect x="188.0" width="10.0" y="64.0" fill="#0000ff" stroke="#000000" height="10.0">
		</rect>
		<rect x="198.0" width="10.0" y="64.0" fill="#0000ff" stroke="#000000" height="10.0">
		</rect>
		<rect x="158.0" width="10.0" y="74.0" fill="#ff0000" stroke="#000000" height="10.0">
		</rect>
		<rect x="168.0" width="10.0" y="74.0" fill="#0000ff" stroke="#000000" height="10.0">
		</rect>
		<rect x="178.0" width="10.0" y="74.0" fill="#0000ff" stroke="#000000" height="10.0">
		</rect>
		<rect x="188.0" width="10.0" y="74.0" fill="#ffff00" stroke="#000000" height="10.0">
		</rect>
		<rect x="198.0" width="10.0" y="74.0" fill="#00ff00" stroke="#000000" height="10.0">
		</rect>
		<rect x="158.0" width="10.0" y="84.0" fill="#ffff00" stroke="#000000" height="10.0">
		</rect>
		<rect x="168.0" width="10.0" y="84.0" fill="#0000ff" stroke="#000000" height="10.0">
		</rect>
		<rect x="178.0" width="10.0" y="84.0" fill="#ff0000" stroke="#000000" height="10.0">
		</rect>
		<rect x="188.0" width="10.0" y="84.0" fill="#00ff00" stroke="#000000" height="10.0">
		</rect>
		<rect x="198.0" width="10.0" y="84.0" fill="#00ff00" stroke="#000000" height="10.0">
		</rect>
		<rect x="158.0" width="10.0" y="94.0" fill="#ff8000" stroke="#000000" height="10.0">
		</rect>
		<rect x="168.0" width="10.0" y="94.0" fill="#ff0000" stroke="#000000" height="10.0">
		</rect>
		<rect x="178.0" width="10.0" y="94.0" fill="#ffffff" stroke="#000000" height="10.0">
		</rect>
		<rect x="188.0" width="10.0" y="94.0" fill="#ff8000" stroke="#000000" height="10.0">
		</rect>
		<rect x="198.0" width="10.0" y="94.0" fill="#00ff00" stroke="#000000" height="10.0">
		</rect>
		<rect x="106.0" width="10.0" y="54.0" fill="#0000ff" stroke="#000000" height="10.0">
		</rect>
		<rect x="116.0" width="10.0" y="54.0" fill="#ffffff" stroke="#000000" height="10.0">
		</rect>
		<rect x="126.0" width="10.0" y="54.0" fill="#ffff00" stroke="#000000" height="10.0">
		</rect>
		<rect x="136.0" width="10.0" y="54.0" fill="#ffff00" stroke="#000000" height="10.0">
		</rect>
		<rect x="146.0" width="10.0" y="54.0" fill="#ff0000" stroke="#000000" height="10.0">
		</rect>
		<rect x="106.0" width="10.0" y="64.0" fill="#ff0000" stroke="#000000" height="10.0">
		</rect>
		<rect x="116.0" width="10.0" y="64.0" fill="#ff8000" stroke="#000000" height="10.0">
		</rect>
		<rect x="126.0" width="10.0" y="64.0" fill="#ffffff" stroke="#000000" height="10.0">
		</rect>
		<rect x="136.0" width="10.0" y="64.0" fill="#ffffff" stroke="#000000" height="10.0">
		</rect>
		<rect x="146.0" width="10.0" y="64.0" fill="#ff8000" stroke="#000000" height="10.0">
		</rect>
		<rect x="106.0" width="10.0" y="74.0" fill="#ff0000" stroke="#000000" height="10.0">
		</rect>
		<rect x="116.0" width="10.0" y="74.0" fill="#ff8000" stroke="#000000" height="10.0">
		</rect>
		<rect x="126.0" width="10.0" y="74.0" fill="#ff0000" stroke="#000000" height="10.0">
		</rect>
		<rect x="136.0" width="10.0" y="74.0" fill="#0000ff" stroke="#000000" height="10.0">
		</rect>
		<rect x="146.0" width="10.0" y="74.0" fill="#ffffff" stroke="#000000" height="10.0">
		</rect>
		<rect x="106.0" width="10.0" y="84.0" fill="#ff8000" stroke="#000000" height="10.0">
		</rect>
		<rect x="116.0" width="10.0" y="84.0" fill="#00ff00" stroke="#000000" height="10.0">
		</rect>
		<rect x="126.0" width="10.0" y="84.0" fill="#ff0000" stroke="#000000" height="10.0">
		</rect>
		<rect x="136.0" width="10.0" y="84.0" fill="#ff0000" stroke="#000000" height="10.0">
		</rect>
		<rect x="146.0" width="10.0" y="84.0" fill="#0000ff" stroke="#000000" height="10.0">
		</rect>
		<rect x="106.0" width="10.0" y="94.0" fill="#ff8000" stroke="#000000" height="10.0">
		</rect>
		<rect x="116.0" width="10.0" y="94.0" fill="#ff0000" stroke="#000000" height="10.0">
		</rect>
		<rect x="126.0" width="10.0" y="94.0" fill="#0000ff" stroke="#000000" height="10.0">
		</rect>
		<rect x="136.0" width="10.0" y="94.0" fill="#00ff00" stroke="#000000" height="10.0">
		</rect>
		<rect x="146.0" width="10.0" y="94.0" fill="#ffffff" stroke="#000000" height="10.0">
		</rect>
		<rect x="54.0" width="10.0" y="2.0" fill="#ff8000" stroke="#000000" height="10.0">
		</rect>
		<rect x="64.0" width="10.0" y="2.0" fill="#ff0000" stroke="#000000" height="10.0">
		</rect>
		<rect x="74.0" width="10.0" y="2.0" fill="#0000ff" stroke="#000000" height="10.0">
		</rect>
		<rect x="84.0" width="10.0" y="2.0" fill="#ff8000" stroke="#000000" height="10.0">
		</rect>
		<rect x="94.0" width="10.0" y="2.0" fill="#00ff00" stroke="#000000" height="10.0">
		</rect>
		<rect x="54.0" width="10.0" y="12.0" fill="#0000ff" stroke="#000000" height="10.0">
		</rect>
		<rect x="64.0" width="10.0" y="12.0" fill="#ffff00" stroke="#000000" height="10.0">
		</rect>
		<rect x="74.0" width="10.0" y="12.0" fill="#ff8000" stroke="#000000" height="10.0">
		</rect>
		<rect x="84.0" width="10.0" y="12.0" fill="#ff8000" stroke="#000000" height="10.0">
		</rect>
		<rect x="94.0" width="10.0" y="12.0" fill="#0000ff" stroke="#000000" height="10.0">
		</rect>
		<rect x="54.0" width="10.0" y="22.0" fill="#00ff00" stroke="#000000" height="10.0">
		</rect>
		<rect x="64.0" width="10.0" y="22.0" fill="#ffffff" stroke="#000000" height="10.0">
		</rect>
		<rect x="74.0" width="10.0" y="22.0" fill="#ffffff" stroke="#000000" height="10.0">
		</rect>
		<rect x="84.0" width="10.0" y="22.0" fill="#ff8000" stroke="#000000" height="10.0">
		</rect>
		<rect x="94.0" width="10.0" y="22.0" fill="#00ff00" stroke="#000000" height="10.0">
		</rect>
		<rect x="54.0" width="10.0" y="32.0" fill="#ff0000" stroke="#000000" height="10.0">
		</rect>
		<rect x="64.0" width="10.0" y="32.0" fill="#ff0000" stroke="#000000" height="10.0">
		</rect>
		<rect x="74.0" width="10.0" y="32.0" fill="#ffffff" stroke="#000000" height="10.0">
		</rect>
		<rect x="84.0" width="10.0" y="32.0" fill="#ff8000" stroke="#000000" height="10.0">
		</rect>
		<rect x="94.0" width="10.0" y="32.0" fill="#ff8000" stroke="#000000" height="10.0">
		</rect>
		<rect x="54.0" width="10.0" y="42.0" fill="#ff0000" stroke="#000000" height="10.0">
		</rect>
		<rect x="64.0" width="10.0" y="42.0" fill="#ffffff" stroke="#000000" height="10.0">
		</rect>
		<rect x="74.0" width="10.0" y="42.0" fill="#ff0000" stroke="#000000" height="10.0">
		</rect>
		<rect x="84.0" width="10.0" y="42.0" fill="#0000ff" stroke="#000000" height="10.0">
		</rect>
		<rect x="94.0" width="10.0" y="42.0" fill="#ffffff" stroke="#000000" height="10.0">
		</rect>
		<rect x="54.0" width="10.0" y="54.0" fill="#0000ff" stroke="#000000" height="10.0">
		</rect>
		<rect x="64.0" width="10.0" y="54.0" fill="#00ff00" stroke="#000000" height="10.0">
		</rect>
		<rect x="74.0" width="10.0" y="54.0" fill="#ffff00" stroke="#000000" height="10.0">
		</rect>
		<rect x="84.0" width="10.0" y="54.0" fill="#ffffff" stroke="#000000" height="10.0">
		</rect>
		<rect x="94.0" width="10.0" y="54.0" fill="#ff0000" stroke="#000000" height="10.0">
		</rect>
		<rect x="54.0" width="10.0" y="64.0" fill="#ffff00" stroke="#000000" height="10.0">
		</rect>
		<rect x="64.0" width="10.0" y="64.0" fill="#0000ff" stroke="#000000" height="10.0">
		</rect>
		<rect x="74.0" width="10.0" y="64.0" fill="#ff0000" stroke="#000000" height="10.0">
		</rect>
		<rect x="84.0" width="10.0" y="64.0" fill="#0000ff" stroke="#000000" height="10.0">
		</rect>
		<rect x="94.0" width="10.0" y="64.0" fill="#0000ff" stroke="#000000" height="10.0">
		</rect>
		<rect x="54.0" width="10.0" y="74.0" fill="#ffff00" stroke="#000000" height="10.0">
		</rect>
		<rect x="64.0" width="10.0" y="74.0" fill="#00ff00" stroke="#000000" height="10.0">
		</rect>
		<rect x="74.0" width="10.0" y="74.0" fill="#00ff00" stroke="#000000" height="10.0">
		</rect>
		<rect x="84.0" width="10.0" y="74.0" fill="#00ff00" stroke="#000000" height="10.0">
		</rect>
		<rect x="94.0" width="10.0" y="74.0" fill="#0000ff" stroke="#000000" height="10.0">
		</rect>
		<rect x="54.0" width="10.0" y="84.0" fill="#ff0000" stroke="#000000" height="10.0">
		</rect>
		<rect x="64.0" width="10.0" y="84.0" fill="#ffffff" stroke="#000000" height="10.0">
		</rect>
		<rect x="74.0" width="10.0" y="84.0" fill="#ffffff" stroke="#000000" height="10.0">
		</rect>
		<rect x="84.0" width="10.0" y="84.0" fill="#00ff00" stroke="#000000" height="10.0">
		</rect>
		<rect x="94.0" width="10.0" y="84.0" fill="#0000ff" stroke="#000000" height="10.0">
		</rect>
		<rect x="54.0" width="10.0" y="94.0" fill="#ff0000" stroke="#000000" height="10.0">
		</rect>
		<rect x="64.0" width="10.0" y="94.0" fill="#ffffff" stroke="#000000" height="10.0">
		</rect>
		<rect x="74.0" width="10.0" y="94.0" fill="#ffffff" stroke="#000000" height="10.0">
		</rect>
		<rect x="84.0" width="10.0" y="94.0" fill="#ffffff" stroke="#000000" height="10.0">
		</rect>
		<rect x="94.0" width="10.0" y="94.0" fill="#0000ff" stroke="#000000" height="10.0">
		</rect>
	</g>
</svg>