<svg xmlns="http://www.w3.org/2000/svg" viewBox="0 0 90 68" width="90px" version="1.1" height="68px">
	<g transform="matrix(1.0,0.0,0.0,1.0,0.5,0.5)">
		<rect x="2.0" width="10.0" y="24.0" fill="#ff8000" stroke="#000000" height="10.0">
		</rect>
		<rect x="12.0" width="10.0" y="24.0" fill="#00ff00" stroke="#000000" height="10.0">
		</rect>
		<rect x="2.0" width="10.0" y="34.0" fill="#ff8000" stroke="#000000" height="10.0">
		</rect>
		<rect x="12.0" width="10.0" y="34.0" fill="#ffff00" stroke="#000000" height="10.0">
		</rect>
		<rect x="24.0" width="10.0" y="46.0" fill="#00ff00" stroke="#000000" height="10.0">
		</rect>
		<rect x="34.0" width="10.0" y="46.0" fill="#0000ff" stroke="#000000" height="10.0">
		</rect>
		<rect x="24.0" width="10.0" y="56.0" fill="#ffff00" stroke="#000000" height="10.0">
		</rect>
		<rect x="34.0" width="10.0" y="56.0" fill="#00ff00" stroke="#000000" height="10.0">
		</rect>
		<rect x="68.0" width="10.0" y="24.0" fill="#0000ff" stroke="#000000" height="10.0">
		</rect>
		<rect x="78.0" width="10.0" y="24.0" fill="#0000ff" stroke="#000000" height="10.0">
		</rect>
		<rect x="68.0" width="10.0" y="34.0" fill="#ff0000" stroke="#000000" height="10.0">
		</rect>
		<rect x="78.0" width="10.0" y="34.0" fill="#0000ff" stroke="#000000" height="10.0">
		</rect>
		<rect x="46.0" width="10.0" y="24.0" fill="#ff8000" stroke="#000000" height="10.0">
		</rect>
		<rect x="56.0" width="10.0" y="24.0" fill="#ff0000" stroke="#000000" height="10.0">
		</rect>
		<rect x="46.0" width="10.0" y="34.0" fill="#ff0000" stroke="#000000" height="10.0">
		</rect>
		<rect x="56.0" width="10.0" y="34.0" fill="#ffffff" stroke="#000000" height="10.0">
		</rect>
		<rect x="24.0" width="10.0" y="2.0" fill="#ffffff" stroke="#000000" height="10.0">
		</rect>
		<rect x="34.0" width="10.0" y="2.0" fill="#ffffff" stroke="#000000" height="10.0">
		</rect>
		<rect x="24.0" width="10.0" y="12.0" fill="#ff0000" stroke="#000000" height="10.0">
		</rect>
		<rect x="34.0" width="10.0" y="12.0" fill="#00ff00" stroke="#000000" height="10.0">
		</rect>
		<rect x="24.0" width="10.0" y="24.0" fill="#ffff00" stroke="#000000" height="10.0">
		</rect>
		<rect x="34.0" width="10.0" y="24.0" fill="#ffffff" stroke="#000000" height="10.0">
		</rect>
		<rect x="24.0" width="10.0" y="34.0" fill="#ff8000" stroke="#000000" height="10.0">
		</rect>
		<rect x="34.0" width="10.0" y="34.0" fill="#ffff00" stroke="#000000" height="10.0">
		</rect>
	</g>
</svg>